<?xml version="1.0" standalone="no"?>
<!DOCTYPE svg PUBLIC "-//W3C//DTD SVG 20010904//EN"
 "http://www.w3.org/TR/2001/REC-SVG-20010904/DTD/svg10.dtd">
<svg version="1.0" xmlns="http://www.w3.org/2000/svg"
 width="19.000000pt" height="18.000000pt" viewBox="0 0 19.000000 18.000000"
 preserveAspectRatio="xMidYMid meet">

<g transform="translate(0.000000,18.000000) scale(0.100000,-0.100000)"
fill="#000000" stroke="none">
<path d="M0 141 c0 -35 2 -38 24 -34 19 4 25 13 28 39 4 32 2 34 -24 34 -26 0
-28 -3 -28 -39z"/>
<path d="M138 146 c3 -26 9 -35 28 -39 22 -4 24 -1 24 34 0 36 -2 39 -28 39
-26 0 -28 -2 -24 -34z"/>
<path d="M85 140 c3 -5 10 -10 16 -10 5 0 9 5 9 10 0 6 -7 10 -16 10 -8 0 -12
-4 -9 -10z"/>
<path d="M78 100 c10 -30 15 -33 29 -15 18 26 17 30 -11 30 -16 0 -22 -4 -18
-15z"/>
<path d="M20 70 c0 -13 5 -18 15 -14 8 4 15 1 15 -5 0 -6 -5 -11 -12 -11 -6 0
-9 -3 -6 -6 4 -3 16 -1 27 6 17 9 19 15 11 30 -14 27 -50 26 -50 0z"/>
<path d="M124 78 c-3 -4 4 -8 15 -8 11 0 22 4 25 8 2 4 -4 8 -15 8 -11 0 -23
-4 -25 -8z"/>
<path d="M134 49 c-18 -5 -45 -16 -60 -24 -29 -15 -28 -15 34 -15 60 0 62 1
62 25 0 14 -1 25 -2 24 -2 0 -17 -5 -34 -10z"/>
</g>
</svg>
