<?xml version="1.0" standalone="no"?>
<!DOCTYPE svg PUBLIC "-//W3C//DTD SVG 20010904//EN"
 "http://www.w3.org/TR/2001/REC-SVG-20010904/DTD/svg10.dtd">
<svg version="1.0" xmlns="http://www.w3.org/2000/svg"
 width="16.000000pt" height="10.000000pt" viewBox="0 0 16.000000 10.000000"
 preserveAspectRatio="xMidYMid meet">

<g transform="translate(0.000000,10.000000) scale(0.100000,-0.100000)"
fill="#000000" stroke="none">
<path d="M68 75 c3 -16 -2 -33 -12 -44 -16 -17 -15 -19 6 -25 34 -9 58 -7 58
4 0 6 -9 10 -20 10 -25 0 -25 7 0 48 l20 32 -29 0 c-25 0 -28 -3 -23 -25z"/>
<path d="M140 65 c0 -19 5 -35 10 -35 6 0 10 16 10 35 0 19 -4 35 -10 35 -5 0
-10 -16 -10 -35z"/>
<path d="M17 76 c-9 -7 -17 -23 -17 -35 0 -19 3 -20 21 -11 11 6 23 18 26 26
9 23 -9 35 -30 20z"/>
<path d="M140 10 c0 -5 5 -10 10 -10 6 0 10 5 10 10 0 6 -4 10 -10 10 -5 0
-10 -4 -10 -10z"/>
</g>
</svg>
