<?xml version="1.0" standalone="no"?>
<!DOCTYPE svg PUBLIC "-//W3C//DTD SVG 20010904//EN"
 "http://www.w3.org/TR/2001/REC-SVG-20010904/DTD/svg10.dtd">
<svg version="1.0" xmlns="http://www.w3.org/2000/svg"
 width="9.000000pt" height="11.000000pt" viewBox="0 0 9.000000 11.000000"
 preserveAspectRatio="xMidYMid meet">

<g transform="translate(0.000000,11.000000) scale(0.100000,-0.100000)"
fill="#000000" stroke="none">
<path d="M1 69 c-1 -45 0 -46 29 -45 34 1 42 21 8 21 -18 0 -24 7 -29 35 -6
34 -6 33 -8 -11z"/>
<path d="M80 100 c0 -5 -11 -10 -25 -10 -14 0 -25 -4 -25 -10 0 -5 9 -10 20
-10 10 0 24 -8 29 -17 8 -15 10 -11 11 20 0 20 -2 37 -5 37 -3 0 -5 -4 -5 -10z"/>
<path d="M76 15 c-3 -8 -1 -15 4 -15 6 0 10 7 10 15 0 8 -2 15 -4 15 -2 0 -6
-7 -10 -15z"/>
</g>
</svg>
