<?xml version="1.0" standalone="no"?>
<!DOCTYPE svg PUBLIC "-//W3C//DTD SVG 20010904//EN"
 "http://www.w3.org/TR/2001/REC-SVG-20010904/DTD/svg10.dtd">
<svg version="1.0" xmlns="http://www.w3.org/2000/svg"
 width="15.000000pt" height="17.000000pt" viewBox="0 0 15.000000 17.000000"
 preserveAspectRatio="xMidYMid meet">

<g transform="translate(0.000000,17.000000) scale(0.100000,-0.100000)"
fill="#000000" stroke="none">
<path d="M0 148 c0 -21 0 -21 23 -2 12 10 24 20 26 21 2 2 -8 3 -22 3 -21 0
-27 -5 -27 -22z"/>
<path d="M140 150 c-6 -29 -50 -43 -50 -16 0 20 -19 20 -48 0 -14 -10 -22 -25
-22 -45 0 -16 -4 -29 -10 -29 -5 0 -10 -15 -9 -32 1 -30 2 -31 8 -8 8 29 51
42 51 16 0 -20 19 -20 48 0 14 9 22 26 22 44 0 15 5 30 11 32 6 2 9 17 7 33
-4 29 -4 29 -8 5z"/>
<path d="M121 20 l-23 -20 26 0 c19 0 26 5 26 20 0 24 1 24 -29 0z"/>
</g>
</svg>
